<svg width="60" height="60" viewBox="0 0 60 60" fill="none" xmlns="http://www.w3.org/2000/svg">
<path d="M9.75 27.9375C9.29167 27.4375 9.0625 26.8442 9.0625 26.1575C9.0625 25.4708 9.29167 24.8767 9.75 24.375L16.75 17.375L14.0625 14.6875L13.3125 15.4375C12.8125 15.9375 12.2192 16.1875 11.5325 16.1875C10.8458 16.1875 10.2517 15.9375 9.75 15.4375C9.29167 14.9792 9.0625 14.3958 9.0625 13.6875C9.0625 12.9792 9.29167 12.3958 9.75 11.9375L14.75 6.9375C15.25 6.4375 15.8442 6.1875 16.5325 6.1875C17.2208 6.1875 17.8142 6.4375 18.3125 6.9375C18.7708 7.39583 19 7.97917 19 8.6875C19 9.39583 18.7708 9.97917 18.3125 10.4375L17.5625 11.1875L20.25 13.875L27.25 6.875C27.75 6.375 28.3442 6.125 29.0325 6.125C29.7208 6.125 30.3142 6.375 30.8125 6.875C31.3108 7.375 31.5608 7.96917 31.5625 8.6575C31.5642 9.34583 31.3142 9.93917 30.8125 10.4375L29.125 12.0625L47.5625 30.5C48.5208 31.4583 49 32.6358 49 34.0325C49 35.4292 48.5208 36.6058 47.5625 37.5625L45.8125 39.375L57.625 51.125H50.5L42.25 42.875L40.5 44.6875C39.5417 45.6458 38.365 46.125 36.97 46.125C35.575 46.125 34.3975 45.6458 33.4375 44.6875L15 26.25L13.3125 27.9375C12.8125 28.3958 12.2192 28.625 11.5325 28.625C10.8458 28.625 10.2517 28.3958 9.75 27.9375ZM18.5 22.75L36.9375 41.1875L44 34.0625L40.25 30.25L36.75 33.75C36.25 34.2083 35.6567 34.4483 34.97 34.47C34.2833 34.4917 33.71 34.2725 33.25 33.8125C32.75 33.3125 32.5 32.7192 32.5 32.0325C32.5 31.3458 32.75 30.7517 33.25 30.25L36.75 26.75L33 23L29.5 26.5C29 26.9583 28.4067 27.1875 27.72 27.1875C27.0333 27.1875 26.4392 26.9583 25.9375 26.5C25.4792 26 25.25 25.4067 25.25 24.72C25.25 24.0333 25.4792 23.4392 25.9375 22.9375L29.4375 19.4375L25.625 15.625L18.5 22.75Z" fill="#0284C7"/>
</svg>
