<svg width="60" height="60" viewBox="0 0 60 60" fill="none" xmlns="http://www.w3.org/2000/svg">
<path d="M29.6475 16.3087C30.7126 16.325 31.7702 16.1292 32.7589 15.7329C33.7476 15.3366 34.6476 14.7476 35.4065 14.0002C36.1654 13.2528 36.7681 12.3619 37.1795 11.3794C37.5909 10.3968 37.8027 9.3423 37.8027 8.27713C37.8027 7.21196 37.5909 6.15743 37.1795 5.1749C36.7681 4.19238 36.1654 3.30148 35.4065 2.55407C34.6476 1.80666 33.7476 1.21765 32.7589 0.821331C31.7702 0.425011 30.7126 0.229293 29.6475 0.245566C25.2113 0.245566 21.6131 3.84182 21.6131 8.27619C21.6136 10.4067 22.4603 12.4498 23.967 13.9561C25.4737 15.4625 27.517 16.3087 29.6475 16.3087ZM40.2459 18.7528H30.7894V26.2528L32.5284 26.6784V24.9393C32.5284 23.8096 33.5578 22.784 35.4366 24.0468C38.0831 25.8309 40.9322 35.9643 37.8422 35.5649C36.3506 35.3746 35.5078 34.6509 33.8653 34.559C32.5313 34.4906 32.5313 33.9168 32.5294 33.1621C32.5275 32.4074 32.5294 29.9849 32.5294 29.9849V28.6349C31.9492 28.4954 31.3695 28.3538 30.7903 28.2103V37.4849C30.7903 37.4849 33.3975 35.7121 35.2622 37.1568C36.4378 38.0709 37.1738 40.7015 33.5372 42.8456C32.6981 43.3565 28.1297 44.5649 26.6963 41.8743H25.0791C24.728 41.8743 24.3913 42.0138 24.143 42.262C23.8948 42.5103 23.7553 42.847 23.7553 43.1981C23.7553 43.5491 23.8948 43.8858 24.143 44.1341C24.3913 44.3824 24.728 44.5218 25.0791 44.5218H34.6556C35.3837 44.5228 36.0816 44.8126 36.5962 45.3276C37.1108 45.8425 37.4001 46.5407 37.4006 47.2687C37.4001 47.9966 37.1108 48.6945 36.5961 49.2092C36.0814 49.7238 35.3835 50.0132 34.6556 50.0137H24.7463C24.591 50.0258 24.4459 50.0961 24.3402 50.2104C24.2344 50.3248 24.1756 50.4748 24.1756 50.6306C24.1756 50.7863 24.2344 50.9364 24.3402 51.0507C24.4459 51.1651 24.591 51.2353 24.7463 51.2474H34.6556C36.1688 51.2474 37.4006 52.4793 37.4006 53.9943C37.4006 55.5093 36.1688 56.7393 34.6556 56.7393H23.0663C22.7838 56.7393 22.5129 56.6271 22.3132 56.4274C22.1135 56.2277 22.0013 55.9568 22.0013 55.6743C22.0013 55.3919 22.1135 55.121 22.3132 54.9212C22.5129 54.7215 22.7838 54.6093 23.0663 54.6093H34.6556C34.815 54.6031 34.9657 54.5354 35.0762 54.4205C35.1867 54.3056 35.2485 54.1524 35.2485 53.9929C35.2485 53.8335 35.1867 53.6802 35.0762 53.5653C34.9657 53.4504 34.815 53.3827 34.6556 53.3765H24.7463C24.0186 53.3753 23.3211 53.0857 22.8066 52.5711C22.2921 52.0566 22.0025 51.3591 22.0013 50.6315C22.0018 49.9033 22.291 49.205 22.8056 48.6897C23.3201 48.1744 24.018 47.8842 24.7463 47.8828H34.6556C34.8131 47.8741 34.9613 47.8054 35.0697 47.6908C35.1781 47.5763 35.2385 47.4245 35.2385 47.2668C35.2385 47.1091 35.1781 46.9574 35.0697 46.8428C34.9613 46.7283 34.8131 46.6596 34.6556 46.6509H25.0791C24.164 46.6494 23.287 46.285 22.6402 45.6378C21.9934 44.9905 21.6298 44.1131 21.6291 43.1981C21.6298 42.283 21.9934 41.4055 22.6401 40.758C23.2869 40.1106 24.164 39.7461 25.0791 39.7443H27.2166C27.2306 39.7443 27.2419 39.7518 27.2559 39.7518H27.9834C28.6903 39.7518 28.6631 39.0037 28.6613 39.0037V28.3218L26.9241 28.8037V29.984C26.9241 29.984 26.9259 32.4065 26.9241 33.1612C26.9241 33.9159 26.9184 34.4896 25.5881 34.559C23.9475 34.6509 23.1047 35.3746 21.6094 35.5649C18.5203 35.9634 21.3713 25.8309 24.0122 24.0459C25.89 22.7821 26.9241 23.8078 26.9241 24.9384V26.8284L28.6613 26.3484V18.7499H19.6209C13.9369 18.7499 8.86688 23.3559 8.86688 29.039V53.9456C8.86688 55.889 10.3959 57.4649 12.3347 57.4649C12.7967 57.4649 13.2542 57.3739 13.6809 57.197C14.1077 57.0201 14.4954 56.7608 14.8219 56.4339C15.1484 56.1071 15.4073 55.7191 15.5838 55.2921C15.7602 54.8651 15.8508 54.4076 15.8503 53.9456V31.4887H18.7622V58.6771H40.6566V31.4887H43.5994V53.9456C43.5994 55.889 45.1734 57.4649 47.1159 57.4649C49.0584 57.4649 50.5866 55.889 50.5866 53.9456V29.039C50.5856 23.3587 45.9281 18.7528 40.2459 18.7528Z" fill="black"/>
</svg>
