<svg width="60" height="60" viewBox="0 0 60 60" fill="none" xmlns="http://www.w3.org/2000/svg">
<path d="M15.9375 9.375C13.2034 9.37798 10.5821 10.4654 8.64875 12.3987C6.71543 14.3321 5.62798 16.9534 5.625 19.6875V40.3125C5.625 45.9975 10.2506 50.625 15.9375 50.625C21.6244 50.625 26.25 45.9975 26.25 40.3125V19.6875C26.25 14.0025 21.6244 9.375 15.9375 9.375ZM15.9375 13.125C19.5562 13.125 22.5 16.0687 22.5 19.6875V28.125H9.375V19.6875C9.375 16.0687 12.3187 13.125 15.9375 13.125ZM42.1875 26.25C38.9564 26.254 35.8588 27.5393 33.574 29.824C31.2893 32.1088 30.004 35.2064 30 38.4375C30 45.1575 35.4675 50.625 42.1875 50.625C48.9075 50.625 54.375 45.1575 54.375 38.4375C54.375 31.7175 48.9075 26.25 42.1875 26.25ZM42.1875 30C46.8394 30 50.625 33.7856 50.625 38.4375C50.625 40.0856 50.1337 41.6119 49.3125 42.9131L37.7119 31.3106C39.0492 30.4581 40.6015 30.0035 42.1875 30ZM9.375 31.875H22.5V40.3125C22.5 43.9313 19.5562 46.875 15.9375 46.875C12.3187 46.875 9.375 43.9313 9.375 40.3125V31.875ZM35.0625 33.9619L46.6631 45.5644C45.3256 46.4166 43.7734 46.8712 42.1875 46.875C39.9505 46.8725 37.8058 45.9828 36.224 44.401C34.6422 42.8192 33.7525 40.6745 33.75 38.4375C33.75 36.7894 34.2413 35.2631 35.0625 33.9619Z" fill="#0369A1"/>
</svg>
