<svg width="60" height="60" viewBox="0 0 60 60" fill="none" xmlns="http://www.w3.org/2000/svg">
<path d="M7.50001 22.79V16.54C7.50001 15.3883 7.88584 14.4275 8.65751 13.6575C9.42917 12.8875 10.3892 12.5017 11.5375 12.5H48.4625C49.6125 12.5 50.5725 12.8858 51.3425 13.6575C52.1125 14.4292 52.4983 15.39 52.5 16.54V30.29H50V16.54C50 16.155 49.84 15.8017 49.52 15.48C49.2 15.1583 48.8475 14.9983 48.4625 15H11.5375C11.1542 15 10.8017 15.16 10.48 15.48C10.1583 15.8 9.99834 16.1533 10 16.54V22.79H7.50001ZM17.5 41.25C17.2333 41.25 17.0042 41.2 16.8125 41.1C16.6208 40.9983 16.4683 40.83 16.355 40.595L11.705 31.25H7.50001V28.75H12.5C12.7333 28.75 12.9467 28.8083 13.14 28.925C13.3333 29.0417 13.485 29.2167 13.595 29.45L17.5 37.215L26.355 19.455C26.4667 19.2633 26.6267 19.1192 26.835 19.0225C27.0433 18.9258 27.265 18.8767 27.5 18.875C27.735 18.8733 27.9483 18.9217 28.14 19.02C28.3317 19.1183 28.4842 19.2625 28.5975 19.4525L33.5525 29.3175L32.4775 30.105C32.1275 30.365 31.805 30.6475 31.51 30.9525L27.45 22.8375L18.595 40.5975C18.4817 40.8308 18.3292 40.9975 18.1375 41.0975C17.9458 41.1992 17.7333 41.25 17.5 41.25ZM27.36 47.5H11.5375C10.3875 47.5 9.42667 47.115 8.65501 46.345C7.88334 45.575 7.49834 44.6133 7.50001 43.46V37.21H10V43.46C10 43.845 10.16 44.1983 10.48 44.52C10.8 44.8417 11.1525 45.0017 11.5375 45H26.7275C26.8192 45.4583 26.91 45.8883 27 46.29C27.09 46.69 27.21 47.0933 27.36 47.5ZM42.5 52.5C39.715 52.5 37.3525 51.53 35.4125 49.59C33.4708 47.6467 32.5 45.2833 32.5 42.5C32.5 39.7167 33.4708 37.3542 35.4125 35.4125C37.3542 33.4708 39.7167 32.5 42.5 32.5C45.2833 32.5 47.6467 33.4708 49.59 35.4125C51.5333 37.3542 52.5033 39.7167 52.5 42.5C52.4967 45.2833 51.5267 47.6467 49.59 49.59C47.6533 51.5333 45.29 52.5033 42.5 52.5ZM43 43.365L47.8225 38.5425L46.4575 37.1775L41.6325 42L43 43.365Z" fill="#991B1B"/>
</svg>
