<svg width="60" height="60" viewBox="0 0 60 60" fill="none" xmlns="http://www.w3.org/2000/svg">
<path fill-rule="evenodd" clip-rule="evenodd" d="M20 40V52.5H40V40H52.5V20H40V7.5H20V20H7.5V40H20ZM33.125 20.6287H29.8375C29.7211 20.6216 29.6047 20.6418 29.4975 20.6875C28.4537 21.1962 27.7987 22.095 27.3975 23.16C27.3225 23.3567 27.2575 23.5546 27.2025 23.7537H24.63C24.7325 23.27 24.8713 22.77 25.0588 22.2762C25.6112 20.8125 26.62 19.31 28.4013 18.44C28.8502 18.2273 29.342 18.1204 29.8388 18.1275H33.1262C33.4578 18.1275 33.7757 18.2592 34.0101 18.4936C34.2446 18.728 34.3762 19.046 34.3762 19.3775C34.3762 19.709 34.2446 20.027 34.0101 20.2614C33.7757 20.4958 33.4578 20.6275 33.1262 20.6275M22.5012 25.0025C21.8112 25.0025 21.235 25.5725 21.4225 26.2375C22.1438 28.8112 25.08 30.8138 28.7512 31.1888V33.1363C27.8825 33.1575 26.98 33.2275 26.2138 33.45C25.6163 33.625 24.9825 33.9225 24.4975 34.4675C23.99 35.0375 23.7512 35.7575 23.7512 36.5613C23.7512 37.365 23.9888 38.0863 24.4963 38.6575C24.9813 39.2038 25.615 39.5037 26.2138 39.6787C26.6138 39.795 27.0512 39.87 27.5012 39.9175V37.4012C27.3028 37.3743 27.1065 37.3334 26.9137 37.2787C26.5763 37.1787 26.4275 37.0688 26.3663 36.9988C26.3263 36.9538 26.2512 36.8525 26.2512 36.5613C26.2512 36.2738 26.3263 36.1737 26.3638 36.13C26.4263 36.06 26.5737 35.9487 26.9137 35.85C27.3925 35.7113 28.01 35.6588 28.7512 35.6388V42.5025H25.0012V45.0025H35.0012V42.5025H31.2512V35.5812C32.6287 35.4737 33.745 35.1713 34.585 34.63C35.7662 33.8675 36.2512 32.7338 36.2512 31.53C36.2612 30.8871 36.1016 30.2529 35.7887 29.6912C37.1938 28.8037 38.1975 27.6012 38.58 26.2375C38.7675 25.5725 38.1925 25.0025 37.5012 25.0025H22.5012ZM31.2512 33.0713C32.2625 32.9738 32.8762 32.7563 33.23 32.5288C33.6112 32.2825 33.7512 31.9938 33.7512 31.53C33.7512 31.1788 33.6712 30.94 33.465 30.7425C32.7443 30.965 32.0031 31.1145 31.2525 31.1888L31.2512 33.0713Z" fill="#0D9488"/>
</svg>
